<svg xmlns="http://www.w3.org/2000/svg" width="16" height="16" fill="currentColor" viewBox="0 0 16 16">
    <path d="M8.864 15.954c.956.239 1.843-.53 1.913-1.466.072-1.051.23-2.016.428-2.59.125-.36.479-.622.828-.622h2.717a1.99 1.99 0 0 0 1.983-1.766v-5.516a1.99 1.99 0 0 0-1.983-1.766 1.99 1.99 0 0 0-2.083-1.423V2.247a.75.75 0 0 1-.75-.75h-2.188c-.359 0-.694.28-.756.645-.062.365-.132.734-.202-1.082-.072-.348-.176-.704-.288-1.038-.112-.333-.254-.64-.42-1.068-.165-.427-.353-.815-.568-1.18-.214-.363-.447-.686-.722-.947-.274-.26-.586-.453-.946-.568-.359-.115-.77-.043-1.122.182a2.5 2.5 0 0 0-.97 1.096c-.07.24-.053.533.042.753.095.22.27.412.523.518l.22.088c.22.088.423.248.567.477.144.23.22.518.22.816v5.402c0 .828-.672 1.5-1.5 1.5s-1.5-.672-1.5-1.5V7.812c0-.427-.162-.835-.448-1.148-.286-.313-.658-.495-1.05-.495h-.265c-.25 0-.485-.16-.573-.404-.088-.244-.058-.521.077-.728.134-.208.355-.326.592-.326h.22c.29 0 .559-.14.733-.372.174-.23.24-.523.16-.798-.08-.276-.252-.507-.496-.653-.245-.147-.55-.176-.848-.094l-.248.067c-.246.067-.512.034-.736-.093z"/>
</svg>